<?xml version="1.0" standalone="no"?><!DOCTYPE svg PUBLIC "-//W3C//DTD SVG 1.1//EN" "http://www.w3.org/Graphics/SVG/1.1/DTD/svg11.dtd"><svg t="1518957999913" class="icon" style="" viewBox="0 0 1024 1024" version="1.1" xmlns="http://www.w3.org/2000/svg" p-id="2664" xmlns:xlink="http://www.w3.org/1999/xlink" width="200" height="200"><defs><style type="text/css"></style></defs><path d="M885.312 773.312 138.688 773.312C90.432 773.312 64 745.6 64 698.752L64 213.312c0-46.848 26.432-74.688 74.688-74.688l746.688 0C933.568 138.688 960 166.528 960 213.312l0 485.376C960 745.6 933.568 773.312 885.312 773.312zM885.312 213.312 138.688 213.312l0 485.312 746.688 0L885.376 213.312zM472.384 590.272 446.016 563.84l-105.6-105.6 52.8-52.8 79.168 79.168 158.4-158.4 52.8 52.8L498.816 563.84 472.384 590.272zM307.2 828.736l83.2 0 9.6-18.048 224 0 9.6 18.048 83.2 0c16.128 0 29.184 12.672 29.184 28.288 0 15.616-13.056 28.288-29.184 28.288L307.2 885.312c-16.128 0-29.12-12.672-29.12-28.288C278.08 841.408 291.072 828.736 307.2 828.736z" p-id="2665" fill="#1296db"></path></svg>