<?xml version="1.0" standalone="no"?><!DOCTYPE svg PUBLIC "-//W3C//DTD SVG 1.1//EN" "http://www.w3.org/Graphics/SVG/1.1/DTD/svg11.dtd"><svg t="1517650229795" class="icon" style="" viewBox="0 0 1024 1024" version="1.1" xmlns="http://www.w3.org/2000/svg" p-id="7651" xmlns:xlink="http://www.w3.org/1999/xlink" width="200" height="200"><defs><style type="text/css"></style></defs><path d="M512 217.6l44.8-44.8c99.2-102.4 262.4-102.4 361.6 0 99.2 102.4 99.2 265.6 0 368l-361.6 368c-12.8 12.8-28.8 19.2-44.8 19.2s-32-6.4-44.8-19.2l-361.6-368c-99.2-102.4-99.2-265.6 0-368 99.2-102.4 262.4-102.4 361.6 0l44.8 44.8z m361.6 278.4c73.6-76.8 73.6-198.4 0-275.2a185.6 185.6 0 0 0-268.8 0l-70.4 67.2c-12.8 12.8-32 12.8-44.8 0l-67.2-70.4a185.6 185.6 0 0 0-268.8 0c-73.6 76.8-73.6 198.4 0 275.2l358.4 371.2 361.6-368z" p-id="7652" fill="#d81e06"></path></svg>